<svg xmlns="http://www.w3.org/2000/svg" xmlns:xlink="http://www.w3.org/1999/xlink" width="647.907" height="574.15" class="typst-doc" viewBox="0 0 485.93 430.612"><path fill="#fff" d="M0 0v430.613h485.93V0Z" class="typst-shape"/><g class="typst-group"><g class="typst-group"><path fill="none" stroke="#666" stroke-linecap="round" d="M101.37 119.548a334.1 334.1 0 0 0 167.73-40.14" class="typst-shape"/><path fill="none" stroke="#666" stroke-linecap="round" d="M269.099 79.405a7 7 0 0 0-1.142 6.197M269.099 79.405a7 7 0 0 1-5.786-2.496M325.797 69.896h37.113M362.91 69.896a7 7 0 0 0-3.927 4.928M362.91 69.896a7 7 0 0 1-3.927-4.928M394.06 79.17v27.846M394.061 107.016a7 7 0 0 0-4.928-3.927" class="typst-shape"/><path fill="none" stroke="#666" stroke-linecap="round" d="M394.06 107.016a7 7 0 0 1 4.929-3.927M56.823 79.17v128.726M56.823 207.896a7 7 0 0 0-4.928-3.927M56.823 207.896a7 7 0 0 1 4.928-3.927M67.59 79.17a479.1 479.1 0 0 1 104.57 128.79M172.158 207.96a7 7 0 0 0-6.22-1.011" class="typst-shape"/><path fill="none" stroke="#666" stroke-linecap="round" d="M172.158 207.96a7 7 0 0 1 2.374-5.837M78.929 226.944l23.905 30.318M102.833 257.262a7 7 0 0 0-6.3-.033M102.834 257.262a7 7 0 0 1 1.438-6.135M159.662 226.944l-27.084 30.337M132.577 257.281a7 7 0 0 0-1.06-6.211M132.578 257.281a7 7 0 0 1 6.291.353M143.441 275.272l67.497 31.024M210.938 306.296a7 7 0 0 0-5.626 2.838M210.938 306.296a7 7 0 0 1-1.51-6.118M225.678 323.096l-36.56 79.514M189.118 402.61a7 7 0 0 0-2.837-5.626M189.118 402.61a7 7 0 0 1 6.118-1.509M240.336 323.096l38.64 79.519M278.976 402.615a7 7 0 0 0-6.15-1.378M278.976 402.615a7 7 0 0 1 2.716-5.686" class="typst-shape"/><path fill="none" stroke="#999" stroke-linecap="round" stroke-width=".8" d="m283.205 79.17-46.971 224.987M236.234 304.156a5.6 5.6 0 0 0-3.218-3.88M236.234 304.157a5.6 5.6 0 0 1 4.5-2.27M288.174 79.17v128.826M288.174 207.996a5.6 5.6 0 0 0-3.942-3.142" class="typst-shape"/><path fill="none" stroke="#999" stroke-linecap="round" stroke-width=".8" d="M288.174 207.996a5.6 5.6 0 0 1 3.943-3.142M300.147 79.17a431.17 431.17 0 0 1 133.852 178.113M433.998 257.284a5.6 5.6 0 0 0-4.836-1.425" class="typst-shape"/><path fill="none" stroke="#999" stroke-linecap="round" stroke-width=".8" d="M433.998 257.284a5.6 5.6 0 0 1 2.467-4.396" class="typst-shape"/><path fill="none" stroke="#666" stroke-linecap="round" d="m301.822 226.944 19.151 30.288M320.973 257.232a7 7 0 0 0-6.264-.686M320.973 257.232a7 7 0 0 1 2.067-5.953" class="typst-shape"/><path fill="#e8f4f8" stroke="#5ba3b5" stroke-width="1.5" d="M24.52 9c-3.31 0-6 2.69-6 6v11.275c0 3.311 2.69 6 6 6h64.605c3.311 0 6-2.689 6-6V15c0-3.31-2.689-6-6-6z" class="typst-shape"/><path fill="none" d="M26.52 17h60.605v7.275H26.52z" class="typst-shape"/><g class="typst-group"><g class="typst-group"><g class="typst-group"><g class="typst-text" transform="matrix(1 0 0 -1 26.52 24.275)"><use xlink:href="#a"/><use xlink:href="#b" x="5.581"/><use xlink:href="#c" x="11.714"/><use xlink:href="#d" x="17.939"/><use xlink:href="#e" x="24.165"/><use xlink:href="#f" x="30.469"/><use xlink:href="#g" x="36.274"/><use xlink:href="#h" x="39.937"/><use xlink:href="#b" x="42.646"/><use xlink:href="#d" x="48.779"/><use xlink:href="#i" x="55.005"/></g></g></g></g><path fill="#e8f4f8" stroke="#5ba3b5" d="M29.521 60.622c-2.207 0-4 1.793-4 4V75.17c0 2.207 1.793 4 4 4h54.603c2.207 0 4-1.793 4-4V64.622c0-2.207-1.793-4-4-4z" class="typst-shape"/><path fill="none" d="M31.521 66.622h50.603v6.548H31.521z" class="typst-shape"/><g class="typst-group"><g class="typst-group"><g class="typst-group"><g class="typst-text" transform="matrix(1 0 0 -1 31.521 73.17)"><use xlink:href="#j"/><use xlink:href="#k" x="3.88"/></g><g class="typst-text" transform="matrix(1 0 0 -1 38.407 73.17)"><use xlink:href="#l" x="2.531"/><use xlink:href="#m" x="8.42"/><use xlink:href="#m" x="13.816"/><use xlink:href="#n" x="19.213"/><use xlink:href="#o" x="22.069"/><use xlink:href="#n" x="26.82"/><use xlink:href="#p" x="29.764"/><use xlink:href="#q" x="33.152"/><use xlink:href="#r" x="38.206"/></g></g></g></g><path fill="#e8f4f8" stroke="#5ba3b5" d="M16.276 107.516c-2.207 0-4 1.793-4 4v10.548c0 2.207 1.793 4 4 4H97.37c2.208 0 4-1.793 4-4v-10.548c0-2.207-1.792-4-4-4z" class="typst-shape"/><path fill="none" d="M18.276 113.516H95.37v6.548H18.276z" class="typst-shape"/><g class="typst-group"><g class="typst-group"><g class="typst-group"><g class="typst-text" transform="matrix(1 0 0 -1 18.276 120.064)"><use xlink:href="#s"/><use xlink:href="#k" x="5.669"/></g><g class="typst-text" transform="matrix(1 0 0 -1 26.95 120.064)"><use xlink:href="#t" x="2.531"/><use xlink:href="#m" x="10.661"/><use xlink:href="#u" x="16.058"/><use xlink:href="#v" x="21.568"/><use xlink:href="#w" x="26.89"/><use xlink:href="#x" x="29.07"/><use xlink:href="#y" x="36.848"/><use xlink:href="#z" x="42.623"/><use xlink:href="#o" x="47.681"/><use xlink:href="#n" x="52.431"/><use xlink:href="#x" x="55.288"/><use xlink:href="#A" x="60.535"/></g></g></g></g><path fill="#f0e8f5" stroke="#9b7bb5" stroke-width="1.5" d="M302.728 9c-3.31 0-6 2.69-6 6v11.275c0 3.311 2.69 6 6 6h76.779c3.31 0 6-2.689 6-6V15c0-3.31-2.69-6-6-6z" class="typst-shape"/><path fill="none" d="M304.728 17h72.779v7.275h-72.779z" class="typst-shape"/><g class="typst-group"><g class="typst-group"><g class="typst-group"><g class="typst-text" transform="matrix(1 0 0 -1 304.728 24.275)"><use xlink:href="#B"/><use xlink:href="#d" x="7.319"/><use xlink:href="#e" x="13.545"/><use xlink:href="#C" x="19.849"/><use xlink:href="#D" x="25.806"/><use xlink:href="#i" x="29.878"/><use xlink:href="#g" x="35.479"/><use xlink:href="#f" x="39.189"/><use xlink:href="#d" x="44.995"/><use xlink:href="#e" x="51.221"/><use xlink:href="#h" x="57.524"/><use xlink:href="#d" x="60.234"/><use xlink:href="#E" x="66.46"/></g></g></g></g><path fill="#f0e8f5" stroke="#9b7bb5" d="M254.551 60.622c-2.207 0-4 1.793-4 4V75.17c0 2.207 1.793 4 4 4h67.246c2.207 0 4-1.793 4-4V64.622c0-2.207-1.793-4-4-4z" class="typst-shape"/><path fill="none" d="M256.551 66.622h63.246v6.548h-63.246z" class="typst-shape"/><g class="typst-group"><g class="typst-group"><g class="typst-group"><g class="typst-text" transform="matrix(1 0 0 -1 256.551 73.17)"><use xlink:href="#F"/><use xlink:href="#k" x="5.621"/></g><g class="typst-text" transform="matrix(1 0 0 -1 265.177 73.17)"><use xlink:href="#G" x="2.531"/><use xlink:href="#p" x="8.741"/><use xlink:href="#H" x="11.979"/><use xlink:href="#I" x="17.121"/><use xlink:href="#J" x="22.443"/><use xlink:href="#n" x="24.623"/><use xlink:href="#x" x="27.479"/><use xlink:href="#H" x="32.726"/><use xlink:href="#n" x="37.868"/><use xlink:href="#v" x="40.812"/><use xlink:href="#p" x="46.134"/><use xlink:href="#x" x="49.373"/></g></g></g></g><path fill="#f0e8f5" stroke="#9b7bb5" d="M367.41 60.622c-2.207 0-4 1.793-4 4V75.17c0 2.207 1.793 4 4 4h53.302c2.207 0 4-1.793 4-4V64.622c0-2.207-1.793-4-4-4z" class="typst-shape"/><path fill="none" d="M369.41 66.622h49.302v6.548H369.41z" class="typst-shape"/><g class="typst-group"><g class="typst-group"><g class="typst-group"><g class="typst-text" transform="matrix(1 0 0 -1 369.41 73.17)"><use xlink:href="#j"/><use xlink:href="#s" x="3.88"/><use xlink:href="#k" x="9.549"/></g><g class="typst-text" transform="matrix(1 0 0 -1 381.965 73.17)"><use xlink:href="#G" x="2.531"/><use xlink:href="#t" x="8.741"/><use xlink:href="#K" x="16.871"/><use xlink:href="#J" x="23.366"/><use xlink:href="#L" x="25.545"/><use xlink:href="#M" x="31.337"/></g></g></g></g><path fill="#f0e8f5" stroke="#9b7bb5" d="M363.813 107.516c-2.207 0-4 1.793-4 4v10.548c0 2.207 1.793 4 4 4h60.496c2.207 0 4-1.793 4-4v-10.548c0-2.207-1.793-4-4-4z" class="typst-shape"/><path fill="none" d="M365.813 113.516h56.496v6.548h-56.496z" class="typst-shape"/><g class="typst-group"><g class="typst-group"><g class="typst-group"><g class="typst-text" transform="matrix(1 0 0 -1 365.813 120.064)"><use xlink:href="#j"/><use xlink:href="#F" x="3.88"/><use xlink:href="#k" x="9.501"/></g><g class="typst-text" transform="matrix(1 0 0 -1 378.32 120.064)"><use xlink:href="#K" x="2.531"/><use xlink:href="#x" x="9.026"/><use xlink:href="#H" x="14.273"/><use xlink:href="#J" x="19.415"/><use xlink:href="#o" x="21.595"/><use xlink:href="#J" x="26.345"/><use xlink:href="#m" x="28.525"/><use xlink:href="#N" x="33.921"/><use xlink:href="#o" x="39.239"/></g></g></g></g><path fill="#e8f5e9" stroke="#6ba37b" stroke-width="1.5" d="M148.58 154.41c-3.311 0-6 2.69-6 6v11.276c0 3.31 2.689 6 6 6h58.037c3.311 0 6-2.69 6-6V160.41c0-3.31-2.689-6-6-6z" class="typst-shape"/><path fill="none" d="M150.58 162.41h54.037v7.276H150.58z" class="typst-shape"/><g class="typst-group"><g class="typst-group"><g class="typst-group"><g class="typst-text" transform="matrix(1 0 0 -1 150.58 169.686)"><use xlink:href="#O"/><use xlink:href="#P" x="7.705"/><use xlink:href="#C" x="14.009"/><use xlink:href="#D" x="19.966"/><use xlink:href="#f" x="23.901"/><use xlink:href="#g" x="29.707"/><use xlink:href="#h" x="33.369"/><use xlink:href="#b" x="36.079"/><use xlink:href="#d" x="42.212"/><use xlink:href="#i" x="48.438"/></g></g></g></g><path fill="#e8f5e9" stroke="#6ba37b" d="M13 208.396c-2.207 0-4 1.793-4 4v10.548c0 2.207 1.793 4 4 4h87.646c2.207 0 4-1.793 4-4v-10.548c0-2.207-1.793-4-4-4z" class="typst-shape"/><path fill="none" d="M15 214.396h83.646v6.548H15z" class="typst-shape"/><g class="typst-group"><g class="typst-group"><g class="typst-group"><g class="typst-text" transform="matrix(1 0 0 -1 15 220.944)"><use xlink:href="#Q"/><use xlink:href="#k" x="5.783"/></g><g class="typst-text" transform="matrix(1 0 0 -1 23.79 220.944)"><use xlink:href="#R" x="2.531"/><use xlink:href="#m" x="9.22"/><use xlink:href="#o" x="14.616"/><use xlink:href="#n" x="19.367"/><use xlink:href="#S" x="24.842"/><use xlink:href="#N" x="31.724"/><use xlink:href="#T" x="37.042"/><use xlink:href="#m" x="42.552"/><use xlink:href="#q" x="48.037"/><use xlink:href="#p" x="53.09"/><use xlink:href="#u" x="56.329"/><use xlink:href="#J" x="61.84"/><use xlink:href="#N" x="64.02"/><use xlink:href="#U" x="69.337"/></g></g></g></g><path fill="#e8f5e9" stroke="#6ba37b" d="M146.427 208.396c-2.207 0-4 1.793-4 4v10.548c0 2.207 1.793 4 4 4h62.342c2.207 0 4-1.793 4-4v-10.548c0-2.207-1.793-4-4-4z" class="typst-shape"/><path fill="none" d="M148.427 214.396h58.342v6.548h-58.342z" class="typst-shape"/><g class="typst-group"><g class="typst-group"><g class="typst-group"><g class="typst-text" transform="matrix(1 0 0 -1 148.427 220.944)"><use xlink:href="#V"/><use xlink:href="#k" x="5.392"/></g><g class="typst-text" transform="matrix(1 0 0 -1 156.825 220.944)"><use xlink:href="#W" x="2.531"/><use xlink:href="#o" x="9.229"/><use xlink:href="#x" x="13.979"/><use xlink:href="#p" x="19.226"/><use xlink:href="#y" x="25.146"/><use xlink:href="#x" x="30.92"/><use xlink:href="#n" x="36.167"/><use xlink:href="#v" x="39.111"/><use xlink:href="#r" x="44.433"/></g></g></g></g><path fill="#e8f5e9" stroke="#6ba37b" d="M93.526 257.654c-2.207 0-4 1.793-4 4v10.548c0 2.207 1.793 4 4 4h47.37c2.206 0 4-1.793 4-4v-10.548c0-2.207-1.794-4-4-4z" class="typst-shape"/><path fill="none" d="M95.526 263.654h43.37v6.548h-43.37z" class="typst-shape"/><g class="typst-group"><g class="typst-group"><g class="typst-group"><g class="typst-text" transform="matrix(1 0 0 -1 95.526 270.202)"><use xlink:href="#X"/><use xlink:href="#k" x="5.577"/></g><g class="typst-text" transform="matrix(1 0 0 -1 104.108 270.202)"><use xlink:href="#y" x="2.531"/><use xlink:href="#x" x="8.306"/><use xlink:href="#H" x="13.553"/><use xlink:href="#p" x="18.694"/><use xlink:href="#x" x="21.933"/><use xlink:href="#n" x="27.18"/><use xlink:href="#o" x="30.037"/></g></g></g></g><path fill="#e8f5e9" stroke="#6ba37b" d="M260.624 208.396c-2.207 0-4 1.793-4 4v10.548c0 2.207 1.793 4 4 4h55.1c2.207 0 4-1.793 4-4v-10.548c0-2.207-1.793-4-4-4z" class="typst-shape"/><path fill="none" d="M262.624 214.396h51.1v6.548h-51.1z" class="typst-shape"/><g class="typst-group"><g class="typst-group"><g class="typst-group"><g class="typst-text" transform="matrix(1 0 0 -1 262.624 220.944)"><use xlink:href="#Y"/><use xlink:href="#k" x="4.109"/></g><g class="typst-text" transform="matrix(1 0 0 -1 269.739 220.944)"><use xlink:href="#Z" x="2.531"/><use xlink:href="#q" x="8.279"/><use xlink:href="#H" x="13.333"/><use xlink:href="#aa" x="18.475"/><use xlink:href="#q" x="23.414"/><use xlink:href="#U" x="28.468"/><use xlink:href="#x" x="33.987"/><use xlink:href="#o" x="39.234"/></g></g></g></g><path fill="#e8f5e9" stroke="#6ba37b" d="M214.818 304.548c-2.208 0-4 1.793-4 4v10.548c0 2.207 1.792 4 4 4h36.137c2.207 0 4-1.793 4-4v-10.548c0-2.207-1.793-4-4-4z" class="typst-shape"/><path fill="none" d="M216.818 310.548h32.137v6.548h-32.137z" class="typst-shape"/><g class="typst-group"><g class="typst-group"><g class="typst-group"><g class="typst-text" transform="matrix(1 0 0 -1 216.818 317.096)"><use xlink:href="#ab"/><use xlink:href="#k" x="5.669"/></g><g class="typst-text" transform="matrix(1 0 0 -1 225.492 317.096)"><use xlink:href="#ac" x="2.531"/><use xlink:href="#w" x="7.844"/><use xlink:href="#x" x="10.024"/><use xlink:href="#x" x="15.271"/><use xlink:href="#n" x="20.518"/></g></g></g></g><path fill="#e8f5e9" stroke="#6ba37b" d="M297.202 257.654c-2.207 0-4 1.793-4 4v10.548c0 2.207 1.793 4 4 4h87.83c2.208 0 4-1.793 4-4v-10.548c0-2.207-1.792-4-4-4z" class="typst-shape"/><path fill="none" d="M299.202 263.654h83.83v6.548h-83.83z" class="typst-shape"/><g class="typst-group"><g class="typst-group"><g class="typst-group"><g class="typst-text" transform="matrix(1 0 0 -1 299.202 270.202)"><use xlink:href="#j"/><use xlink:href="#V" x="3.88"/><use xlink:href="#k" x="9.272"/></g><g class="typst-text" transform="matrix(1 0 0 -1 311.48 270.202)"><use xlink:href="#ad" x="2.531"/><use xlink:href="#p" x="7.831"/><use xlink:href="#m" x="11.07"/><use xlink:href="#v" x="16.466"/><use xlink:href="#T" x="21.788"/><use xlink:href="#w" x="27.299"/><use xlink:href="#x" x="29.479"/><use xlink:href="#o" x="34.726"/><use xlink:href="#I" x="39.476"/><use xlink:href="#m" x="44.798"/><use xlink:href="#m" x="50.194"/><use xlink:href="#n" x="55.591"/><use xlink:href="#J" x="58.535"/><use xlink:href="#N" x="60.715"/><use xlink:href="#U" x="66.032"/></g></g></g></g><path fill="#fff8e1" stroke="#c9a227" stroke-width="1.5" d="M179.841 351.443c-3.31 0-6 2.69-6 6v11.275c0 3.31 2.69 6 6 6h106.09c3.31 0 6-2.69 6-6v-11.275c0-3.31-2.69-6-6-6z" class="typst-shape"/><path fill="none" d="M181.841 359.443h102.09v7.275h-102.09z" class="typst-shape"/><g class="typst-group"><g class="typst-group"><g class="typst-group"><g class="typst-text" transform="matrix(1 0 0 -1 181.841 366.718)"><use xlink:href="#ae"/><use xlink:href="#af" x="6.479"/><use xlink:href="#f" x="9.189"/><use xlink:href="#g" x="14.995"/><use xlink:href="#ag" x="18.335"/><use xlink:href="#b" x="22.1"/><use xlink:href="#D" x="28.232"/><use xlink:href="#ah" x="32.378"/><use xlink:href="#e" x="43.872"/><use xlink:href="#C" x="50.176"/><use xlink:href="#P" x="56.133"/><use xlink:href="#af" x="62.437"/><use xlink:href="#b" x="65.146"/><use xlink:href="#ai" x="71.099"/><use xlink:href="#ah" x="77.119"/><use xlink:href="#C" x="86.245"/><use xlink:href="#d" x="92.202"/><use xlink:href="#g" x="98.428"/></g></g></g></g><path fill="#fff8e1" stroke="#c9a227" d="M142.661 403.065c-2.207 0-4 1.792-4 4v10.547c0 2.208 1.793 4 4 4h69.874c2.207 0 4-1.792 4-4v-10.547c0-2.208-1.793-4-4-4z" class="typst-shape"/><path fill="none" d="M144.661 409.065h65.874v6.547h-65.874z" class="typst-shape"/><g class="typst-group"><g class="typst-group"><g class="typst-group"><g class="typst-text" transform="matrix(1 0 0 -1 144.661 415.612)"><use xlink:href="#aj"/><use xlink:href="#k" x="5.581"/></g><g class="typst-text" transform="matrix(1 0 0 -1 153.248 415.612)"><use xlink:href="#ak" x="2.531"/><use xlink:href="#w" x="9.105"/><use xlink:href="#m" x="11.285"/><use xlink:href="#v" x="16.682"/><use xlink:href="#u" x="22.003"/><use xlink:href="#al" x="27.514"/><use xlink:href="#am" x="30.757"/><use xlink:href="#J" x="37.538"/><use xlink:href="#an" x="39.718"/><use xlink:href="#S" x="44.631"/><use xlink:href="#y" x="51.513"/></g></g></g></g><path fill="#fff8e1" stroke="#c9a227" d="M263.626 403.065c-2.207 0-4 1.792-4 4v10.547c0 2.208 1.793 4 4 4h49.096c2.208 0 4-1.792 4-4v-10.547c0-2.208-1.792-4-4-4z" class="typst-shape"/><path fill="none" d="M265.626 409.065h45.096v6.547h-45.096z" class="typst-shape"/><g class="typst-group"><g class="typst-group"><g class="typst-group"><g class="typst-text" transform="matrix(1 0 0 -1 265.626 415.612)"><use xlink:href="#j"/><use xlink:href="#ao" x="3.88"/><use xlink:href="#k" x="9.686"/></g><g class="typst-text" transform="matrix(1 0 0 -1 278.317 415.612)"><use xlink:href="#K" x="2.531"/><use xlink:href="#q" x="9.026"/><use xlink:href="#p" x="14.08"/><use xlink:href="#ap" x="17.543"/><use xlink:href="#J" x="24.908"/><use xlink:href="#N" x="27.088"/></g></g></g></g><path fill="#fce4ec" stroke="#c27b8c" stroke-width="1.5" d="M416.219 206.032c-3.311 0-6 2.69-6 6v11.276c0 3.31 2.689 6 6 6h43.443c3.31 0 6-2.69 6-6v-11.276c0-3.31-2.69-6-6-6z" class="typst-shape"/><path fill="none" d="M418.219 214.032h39.443v7.276h-39.443z" class="typst-shape"/><g class="typst-group"><g class="typst-group"><g class="typst-group"><g class="typst-text" transform="matrix(1 0 0 -1 418.219 221.308)"><use xlink:href="#aq"/><use xlink:href="#c" x="6.548"/><use xlink:href="#P" x="12.773"/><use xlink:href="#P" x="19.077"/><use xlink:href="#b" x="25.381"/><use xlink:href="#D" x="31.514"/><use xlink:href="#g" x="35.781"/></g></g></g></g><path fill="#fce4ec" stroke="#c27b8c" d="M402.95 257.654c-2.207 0-4 1.793-4 4v10.548c0 2.207 1.793 4 4 4h69.98c2.207 0 4-1.793 4-4v-10.548c0-2.207-1.793-4-4-4z" class="typst-shape"/><path fill="none" d="M404.95 263.654h65.98v6.548h-65.98z" class="typst-shape"/><g class="typst-group"><g class="typst-group"><g class="typst-group"><g class="typst-text" transform="matrix(1 0 0 -1 404.95 270.202)"><use xlink:href="#j"/><use xlink:href="#j" x="3.88"/><use xlink:href="#k" x="7.761"/></g><g class="typst-text" transform="matrix(1 0 0 -1 415.717 270.202)"><use xlink:href="#ak" x="2.531"/><use xlink:href="#m" x="9.105"/><use xlink:href="#N" x="14.502"/><use xlink:href="#n" x="19.819"/><use xlink:href="#p" x="22.764"/><use xlink:href="#J" x="26.24"/><use xlink:href="#T" x="28.419"/><use xlink:href="#v" x="33.93"/><use xlink:href="#n" x="39.252"/><use xlink:href="#J" x="42.196"/><use xlink:href="#N" x="44.376"/><use xlink:href="#U" x="49.693"/></g></g></g></g><path fill="#fce4ec" stroke="#c27b8c" d="M406.633 304.548c-2.207 0-4 1.793-4 4v10.548c0 2.207 1.793 4 4 4h62.614c2.208 0 4-1.793 4-4v-10.548c0-2.207-1.792-4-4-4z" class="typst-shape"/><path fill="none" d="M408.633 310.548h58.614v6.548h-58.614z" class="typst-shape"/><g class="typst-group"><g class="typst-group"><g class="typst-group"><g class="typst-text" transform="matrix(1 0 0 -1 408.633 317.096)"><use xlink:href="#j"/><use xlink:href="#Q" x="3.88"/><use xlink:href="#k" x="9.664"/></g><g class="typst-text" transform="matrix(1 0 0 -1 421.303 317.096)"><use xlink:href="#L" x="2.531"/><use xlink:href="#x" x="8.191"/><use xlink:href="#ar" x="13.438"/><use xlink:href="#x" x="16.506"/><use xlink:href="#p" x="21.753"/><use xlink:href="#x" x="24.992"/><use xlink:href="#N" x="30.239"/><use xlink:href="#H" x="35.556"/><use xlink:href="#x" x="40.698"/></g></g></g></g></g></g><defs><symbol id="a" overflow="visible"><path d="M.66 0h1.488v2.793h2.974v1.216H2.148V6.04h3.296v1.235H.66Z"/></symbol><symbol id="b" overflow="visible"><path d="M3.066-.107c1.641 0 2.671 1.132 2.671 2.812 0 1.69-1.03 2.822-2.67 2.822C1.42 5.527.395 4.395.395 2.705c0-1.68 1.025-2.812 2.67-2.812m0 1.152c-.78 0-1.176.713-1.176 1.665 0 .967.395 1.665 1.176 1.665.782 0 1.182-.703 1.182-1.665 0-.952-.4-1.665-1.182-1.665"/></symbol><symbol id="c" overflow="visible"><path d="M2.505-.068c.83 0 1.387.43 1.694 1.2L4.22 0h1.386v5.459h-1.47v-3.16c0-.722-.439-1.142-1.059-1.142-.615 0-.986.406-.986 1.084V5.46H.625V1.987c0-1.279.747-2.055 1.88-2.055"/></symbol><symbol id="d" overflow="visible"><path d="M2.09 3.16c0 .722.434 1.142 1.06 1.142.615 0 .986-.406.986-1.084V0H5.6v3.472c0 1.279-.743 2.055-1.875 2.055-.84 0-1.392-.434-1.7-1.196l-.02 1.128H.626V0H2.09Z"/></symbol><symbol id="e" overflow="visible"><path d="M2.622-.093c.889 0 1.343.528 1.543.967h.073V0h1.44v7.275H4.215V4.541h-.049c-.195.435-.625.986-1.553.986-1.21 0-2.216-.942-2.216-2.807 0-1.817.966-2.813 2.226-2.813m.45 1.177c-.762 0-1.173.679-1.173 1.64 0 .958.4 1.631 1.172 1.631.752 0 1.172-.64 1.172-1.63 0-.987-.425-1.641-1.172-1.641"/></symbol><symbol id="f" overflow="visible"><path d="M2.148-.107c.806 0 1.333.356 1.597.864h.049V0H5.18v3.677c0 1.323-1.143 1.85-2.315 1.85-1.22 0-2.1-.542-2.378-1.489l1.343-.225c.117.352.464.63 1.03.63.547 0 .855-.263.855-.727V3.69c0-.356-.386-.395-1.323-.488C1.318 3.101.332 2.75.332 1.528c0-1.079.776-1.635 1.816-1.635m.415 1.03c-.483 0-.825.22-.825.644 0 .44.362.65.904.728.322.044.903.122 1.084.249v-.59c0-.577-.479-1.031-1.163-1.031"/></symbol><symbol id="g" overflow="visible"><path d="M3.335 5.459h-1.02v1.299H.85V5.459H.098V4.341H.85V1.47c0-1.001.595-1.548 1.69-1.548.292 0 .62.034.946.132l-.21 1.098a2.5 2.5 0 0 0-.464-.063c-.356 0-.498.161-.498.508V4.34h1.021Z"/></symbol><symbol id="h" overflow="visible"><path d="M.625 0H2.09v5.459H.625Zm.732 6.172c.44 0 .806.332.806.752 0 .415-.366.752-.806.752-.444 0-.805-.337-.805-.752 0-.42.361-.752.805-.752"/></symbol><symbol id="i" overflow="visible"><path d="M2.793-.107c1.43 0 2.441.717 2.441 1.792 0 .776-.507 1.26-1.562 1.474l-.982.195c-.517.108-.703.298-.703.572 0 .327.371.552.85.552.532 0 .84-.264.957-.635l1.299.23c-.205.888-.982 1.454-2.276 1.454-1.381 0-2.295-.644-2.295-1.694 0-.815.518-1.333 1.573-1.548l.942-.195c.479-.098.703-.274.703-.562 0-.327-.346-.561-.903-.561-.6 0-.952.249-1.094.762L.381 1.494C.57.48 1.475-.107 2.793-.107"/></symbol><symbol id="j" overflow="visible"><path d="M3.292 6.548H1.854L.41 5.533V4.307l1.498 1.059h.044V0h1.34Z"/></symbol><symbol id="k" overflow="visible"><path d="M1.503-.083c.43 0 .76.33.76.755 0 .427-.33.756-.76.756s-.76-.33-.76-.756.33-.755.76-.755"/></symbol><symbol id="l" overflow="visible"><path d="M.791 0h2.395c1.543 0 2.193.756 2.193 1.745 0 1.028-.716 1.59-1.327 1.63v.062c.571.153 1.072.536 1.072 1.375 0 .958-.646 1.736-2.013 1.736H.791Zm.835.738v2.233h1.582c.84 0 1.367-.563 1.367-1.218 0-.566-.391-1.015-1.41-1.015Zm0 2.936V5.81h1.468c.848 0 1.23-.449 1.23-1.016 0-.676-.553-1.12-1.257-1.12Z"/></symbol><symbol id="m" overflow="visible"><path d="M2.694-.105c1.34 0 2.245 1.015 2.245 2.53 0 1.539-.905 2.55-2.245 2.55-1.336 0-2.237-1.011-2.237-2.55 0-1.515.9-2.53 2.237-2.53m0 .707c-.98 0-1.433.857-1.433 1.824 0 .98.453 1.841 1.433 1.841.993 0 1.446-.866 1.446-1.841 0-.967-.453-1.824-1.446-1.824"/></symbol><symbol id="n" overflow="visible"><path d="M2.628 4.913h-1.01v1.169H.825V4.913H.088v-.677h.738V1.213c0-.804.501-1.275 1.35-1.275.201 0 .426.031.588.088l-.162.668a2.5 2.5 0 0 0-.405-.052c-.417 0-.58.193-.58.632v2.962h1.01Z"/></symbol><symbol id="o" overflow="visible"><path d="M2.364-.105c1.152 0 1.938.628 1.938 1.49 0 .672-.417 1.115-1.31 1.326l-.742.176c-.576.136-.826.339-.826.703 0 .409.44.712 1.024.712.633 0 .91-.343 1.046-.694l.716.184c-.224.69-.756 1.183-1.767 1.183-1.046 0-1.819-.59-1.819-1.433 0-.69.426-1.13 1.318-1.34l.818-.194c.483-.114.72-.338.72-.676 0-.405-.439-.743-1.125-.743-.588 0-.988.242-1.129.782l-.751-.18C.65.343 1.354-.105 2.365-.105"/></symbol><symbol id="p" overflow="visible"><path d="M.694 0h.791v3.076c0 .664.519 1.143 1.226 1.143.211 0 .427-.035.475-.044v.795c-.092.005-.286.013-.4.013-.584 0-1.094-.33-1.274-.826h-.053v.756H.694Z"/></symbol><symbol id="q" overflow="visible"><path d="M2.07-.114c.83 0 1.292.435 1.459.782h.053V0h.777v3.239c0 1.533-1.182 1.736-1.84 1.736-.761 0-1.605-.273-1.983-1.165l.76-.25c.154.342.537.72 1.244.72.681 0 1.028-.351 1.028-.962v-.026c0-.365-.386-.339-1.26-.449-.91-.114-1.912-.32-1.912-1.446 0-.966.742-1.511 1.674-1.511m.136.698c-.589 0-1.015.264-1.015.774 0 .558.505.743 1.081.817.303.04 1.165.128 1.296.282v-.682c0-.602-.487-1.19-1.362-1.19"/></symbol><symbol id="r" overflow="visible"><path d="M.694-1.837h.791V.76h.062c.162-.272.492-.865 1.428-.865 1.226 0 2.079.984 2.079 2.548 0 1.556-.857 2.532-2.083 2.532-.958 0-1.262-.59-1.424-.849h-.088v.787H.694ZM2.856.603c-.892 0-1.38.755-1.38 1.85 0 1.085.475 1.814 1.38 1.814.932 0 1.394-.795 1.394-1.815 0-1.033-.475-1.85-1.394-1.85"/></symbol><symbol id="s" overflow="visible"><path d="M.545 0h4.632v1.103H2.408v.048l.989.976c1.34 1.235 1.692 1.841 1.692 2.575 0 1.134-.923 1.934-2.307 1.934-1.358 0-2.299-.822-2.299-2.096h1.284c0 .637.395 1.023 1.006 1.023.584 0 1.015-.36 1.015-.944 0-.528-.33-.897-.923-1.477L.545.967Z"/></symbol><symbol id="t" overflow="visible"><path d="M.791 0h.795v3.74c0 .505-.017 1.279-.03 1.903.259-.77.514-1.534.659-1.903L3.7 0h.725L5.89 3.74c.15.382.422 1.169.659 1.916a85 85 0 0 1-.03-1.916V0h.82v6.548h-1.19l-1.59-4.131c-.128-.33-.33-.976-.484-1.49-.154.532-.36 1.174-.484 1.49l-1.612 4.13H.79Z"/></symbol><symbol id="u" overflow="visible"><path d="M2.536-.105c.936 0 1.265.593 1.428.865h.088V0h.764v6.548h-.79V4.126h-.062c-.163.26-.466.849-1.424.849-1.226 0-2.083-.976-2.083-2.532C.457.88 1.31-.105 2.536-.105m.118.707c-.918 0-1.393.817-1.393 1.85 0 1.02.462 1.815 1.393 1.815.906 0 1.38-.73 1.38-1.815 0-1.094-.488-1.85-1.38-1.85"/></symbol><symbol id="v" overflow="visible"><path d="M2.36-.062c.646 0 1.182.264 1.503.98V0h.764v4.913h-.795V1.97C3.832 1.129 3.3.65 2.597.65c-.685 0-1.112.453-1.112 1.209v3.054h-.79v-3.12c0-1.244.672-1.855 1.665-1.855"/></symbol><symbol id="w" overflow="visible"><path d="M1.485 6.548h-.79V0h.79Z"/></symbol><symbol id="x" overflow="visible"><path d="M2.76-.105c1.006 0 1.74.505 1.969 1.248l-.765.21c-.185-.5-.62-.755-1.2-.755-.87 0-1.468.562-1.507 1.59h3.55v.33c0 1.815-1.098 2.457-2.14 2.457-1.34 0-2.21-1.05-2.21-2.558 0-1.512.879-2.522 2.303-2.522M1.26 2.856c.049.752.563 1.415 1.406 1.415.81 0 1.262-.58 1.336-1.415Z"/></symbol><symbol id="y" overflow="visible"><path d="M2.887-.114c1.512 0 2.378.826 2.378 1.898 0 1.222-1.152 1.617-1.855 1.81l-.655.18c-.479.133-1.248.374-1.248 1.06 0 .615.563 1.063 1.411 1.063.778 0 1.367-.364 1.441-1.001h.818c-.04.988-.94 1.74-2.233 1.74-1.265 0-2.25-.734-2.25-1.842 0-.87.616-1.41 1.67-1.709l.791-.224c.699-.198 1.297-.43 1.297-1.064 0-.698-.677-1.164-1.565-1.164-.769 0-1.454.338-1.52 1.08H.51C.584.616 1.468-.113 2.887-.113"/></symbol><symbol id="z" overflow="visible"><path d="M.615-1.78c.084-.04.3-.092.58-.092.695 0 1.17.356 1.468 1.138l2.158 5.647h-.862L2.905 2c-.154-.427-.268-.853-.378-1.262-.114.409-.224.83-.378 1.262L1.103 4.913H.237l1.877-4.94-.14-.408c-.243-.703-.59-.809-1.073-.681l-.084.022Z"/></symbol><symbol id="A" overflow="visible"><path d="M.694 0h.791v3.094c0 .782.523 1.186 1.099 1.186.554 0 .962-.364.962-.91V0h.791v3.208c0 .62.405 1.072 1.068 1.072.528 0 .993-.281.993-.988V0h.791v3.313c0 1.139-.694 1.688-1.546 1.688-.712 0-1.314-.382-1.547-1.002-.176.606-.607 1.002-1.253 1.002-.58 0-1.134-.325-1.375-.989l-.005.901H.694Z"/></symbol><symbol id="B" overflow="visible"><path d="M3.662-.103c1.797 0 3.003 1.065 3.003 2.657v4.721H5.171v-4.6c0-.849-.596-1.46-1.509-1.46s-1.514.611-1.514 1.46v4.6H.66V2.554C.66.962 1.851-.103 3.662-.103"/></symbol><symbol id="C" overflow="visible"><path d="M3.09-.107c1.27 0 2.14.59 2.408 1.499L4.17 1.64c-.156-.42-.542-.645-1.055-.645-.737 0-1.235.46-1.27 1.353h3.736v.41c0 1.865-1.138 2.768-2.563 2.768C1.42 5.527.396 4.385.396 2.7.396.977 1.42-.107 3.09-.107M1.856 3.267c.06.673.479 1.157 1.177 1.157.679 0 1.065-.445 1.138-1.157Z"/></symbol><symbol id="D" overflow="visible"><path d="M.625 0H2.09v3.105c0 .68.493 1.143 1.167 1.143.215 0 .503-.034.635-.073v1.308a2.4 2.4 0 0 1-.474.05c-.615 0-1.118-.352-1.318-1.026H2.04v.952H.625Z"/></symbol><symbol id="E" overflow="visible"><path d="M3.052-2.158c1.538 0 2.641.722 2.641 2.202v5.415h-1.44v-.918h-.064c-.2.435-.649.986-1.567.986-1.21 0-2.226-.942-2.226-2.788 0-1.806.99-2.66 2.221-2.66.884 0 1.314.448 1.514.888h.112V-.04c0-.718-.454-1.055-1.201-1.055-.713 0-1.05.318-1.187.625L.595-.82c.24-.782 1.09-1.338 2.457-1.338m.024 3.35c-.762 0-1.177.605-1.177 1.557 0 .938.406 1.606 1.177 1.606.752 0 1.172-.64 1.172-1.606 0-.977-.425-1.558-1.172-1.558"/></symbol><symbol id="F" overflow="visible"><path d="M2.896-.088c1.459 0 2.5.804 2.5 1.92 0 .814-.51 1.398-1.463 1.525v.049c.725.14 1.226.659 1.226 1.393 0 1.024-.896 1.837-2.241 1.837-1.332 0-2.338-.782-2.356-1.903h1.292c.014.51.484.83 1.055.83.567 0 .95-.342.95-.848 0-.523-.444-.879-1.082-.879h-.606V2.84h.606C3.537 2.839 4 2.46 4 1.92c0-.531-.453-.896-1.099-.896-.62 0-1.094.32-1.116.813H.435C.453.699 1.472-.088 2.896-.088"/></symbol><symbol id="G" overflow="visible"><path d="M.229 0h.887l.633 1.828h2.698L5.102 0h.879L3.573 6.548h-.967Zm1.775 2.558.461 1.327c.141.404.343 1.028.62 1.995.277-.95.47-1.556.628-1.995l.475-1.327Z"/></symbol><symbol id="H" overflow="visible"><path d="M2.694-.105c.962 0 1.744.522 2.008 1.397l-.756.215C3.801.976 3.353.602 2.694.602c-.98 0-1.433.857-1.433 1.824 0 .98.453 1.841 1.433 1.841.646 0 1.085-.36 1.23-.866l.76.216c-.267.857-1.04 1.358-1.99 1.358-1.336 0-2.237-1.011-2.237-2.55 0-1.515.9-2.53 2.237-2.53"/></symbol><symbol id="I" overflow="visible"><path d="M1.485 2.944c0 .84.532 1.319 1.24 1.319.685 0 1.107-.453 1.107-1.209V0h.795v3.12c0 1.244-.672 1.855-1.665 1.855-.642 0-1.156-.26-1.477-.914v2.487h-.79V0h.79Z"/></symbol><symbol id="J" overflow="visible"><path d="M.694 0h.791v4.913h-.79Zm.4 5.717c.303 0 .554.233.554.523s-.25.523-.554.523c-.299 0-.55-.233-.55-.523s.251-.523.55-.523"/></symbol><symbol id="K" overflow="visible"><path d="M2.834 0C4.83 0 5.96 1.24 5.96 3.287c0 2.03-1.13 3.26-3.041 3.26H.791V0ZM1.626.738V5.81h1.235c1.516 0 2.29-.95 2.29-2.523 0-1.59-.774-2.549-2.37-2.549Z"/></symbol><symbol id="L" overflow="visible"><path d="M.791 0h.835v2.54h1.41q.078-.001.154.004L4.553 0h.967L4.052 2.694c.826.29 1.213.962 1.213 1.832 0 1.17-.703 2.022-2.233 2.022H.791Zm.835 3.283v2.531h1.362c1.042 0 1.446-.51 1.446-1.288 0-.769-.404-1.243-1.437-1.243Z"/></symbol><symbol id="M" overflow="visible"><path d="M.791 0h4.03v.738H1.626v2.198h2.94v.738h-2.94V5.81h3.155v.738H.791Z"/></symbol><symbol id="N" overflow="visible"><path d="M1.485 2.944c0 .84.532 1.319 1.24 1.319.685 0 1.107-.453 1.107-1.209V0h.791v3.12c0 1.244-.668 1.855-1.661 1.855-.66 0-1.187-.277-1.503-.972l-.004.91h-.76V0h.79Z"/></symbol><symbol id="O" overflow="visible"><path d="M3.853-.098c1.928 0 3.393 1.363 3.393 3.73 0 2.379-1.465 3.741-3.393 3.741-1.93 0-3.394-1.362-3.394-3.74 0-2.363 1.465-3.73 3.394-3.73m0 1.324c-1.128 0-1.88.85-1.88 2.407 0 1.562.752 2.417 1.88 2.417s1.88-.85 1.88-2.417c0-1.558-.753-2.407-1.88-2.407"/></symbol><symbol id="P" overflow="visible"><path d="M.625-2.041H2.09V.874h.044c.205-.44.654-.967 1.548-.967 1.26 0 2.221.996 2.221 2.813 0 1.865-1 2.807-2.212 2.807-.927 0-1.357-.551-1.557-.986h-.069v.918H.625Zm2.607 3.125c-.747 0-1.176.654-1.176 1.64 0 .992.424 1.631 1.176 1.631.767 0 1.172-.673 1.172-1.63 0-.962-.41-1.641-1.172-1.641"/></symbol><symbol id="Q" overflow="visible"><path d="M.444 1.165h3.133V0h1.288v1.165h.817v1.08h-.817v4.303H3.182L.444 2.224Zm3.16 1.08H1.797v.053l1.754 2.773h.053Z"/></symbol><symbol id="R" overflow="visible"><path d="M.791 0h.835v2.98h3.436V0h.835v6.548h-.835v-2.83H1.626v2.83H.791Z"/></symbol><symbol id="S" overflow="visible"><path d="M3.445-.088c1.679 0 2.9 1.283 2.9 3.358 0 2.078-1.221 3.366-2.9 3.366S.536 5.348.536 3.27c0-2.075 1.23-3.358 2.91-3.358m0 .774C2.268.686 1.35 1.6 1.35 3.27c0 1.678.919 2.592 2.096 2.592 1.17 0 2.088-.91 2.088-2.592 0-1.675-.919-2.584-2.088-2.584"/></symbol><symbol id="T" overflow="visible"><path d="M2.975-.105c1.226 0 2.079.984 2.079 2.548 0 1.556-.857 2.532-2.083 2.532-.958 0-1.262-.59-1.424-.849h-.062v2.422h-.79V0h.764v.76h.088c.162-.272.492-.865 1.428-.865m-.119.707c-.892 0-1.38.756-1.38 1.85 0 1.086.475 1.815 1.38 1.815.932 0 1.394-.795 1.394-1.815 0-1.033-.475-1.85-1.394-1.85"/></symbol><symbol id="U" overflow="visible"><path d="M2.685-1.942c1.195 0 2.14.545 2.14 1.815v5.04h-.769v-.787h-.075c-.167.264-.483.849-1.432.849-1.226 0-2.092-.976-2.092-2.496 0-1.543.897-2.4 2.074-2.4.95 0 1.261.54 1.428.822h.075v-.984c0-.81-.567-1.17-1.349-1.17-.866 0-1.173.44-1.38.726L.664-.94c.303-.541.931-1.002 2.021-1.002M2.663.782c-.923 0-1.402.703-1.402 1.714 0 .98.466 1.771 1.402 1.771.905 0 1.38-.73 1.38-1.77 0-1.073-.488-1.715-1.38-1.715"/></symbol><symbol id="V" overflow="visible"><path d="M2.76-.088c1.441 0 2.426.945 2.426 2.263 0 1.257-.875 2.154-2.057 2.154-.563 0-1.055-.229-1.288-.545h-.035l.167 1.656h2.852v1.108H.861L.55 3.11l1.204-.21c.198.259.594.43.985.43.668 0 1.147-.488 1.147-1.186 0-.695-.466-1.17-1.125-1.17-.558 0-1.02.348-1.042.862H.408C.44.717 1.416-.088 2.76-.088"/></symbol><symbol id="W" overflow="visible"><path d="M3.353-.105c1.543 0 2.553.984 2.553 2.333v4.32h-.835V2.294c0-.94-.65-1.626-1.718-1.626-1.072 0-1.727.686-1.727 1.626v4.254H.791v-4.32c0-1.35 1.01-2.333 2.562-2.333"/></symbol><symbol id="X" overflow="visible"><path d="M3.006-.088c1.446 0 2.43.954 2.43 2.276 0 1.23-.861 2.114-2.017 2.114-.716 0-1.35-.343-1.644-.914h-.044c0 1.292.457 2.092 1.323 2.092.519 0 .884-.286.993-.747h1.319C5.234 5.81 4.342 6.636 3.054 6.636c-1.608 0-2.64-1.314-2.64-3.516 0-2.4 1.26-3.208 2.592-3.208M2.997.976c-.65 0-1.13.527-1.13 1.173 0 .642.497 1.173 1.139 1.173.65 0 1.125-.51 1.125-1.169 0-.668-.488-1.177-1.134-1.177"/></symbol><symbol id="Y" overflow="visible"><path d="M.778 0H2.17l2.733 5.423v1.125H.33V5.44h3.172v-.044Z"/></symbol><symbol id="Z" overflow="visible"><path d="M.791 0h.835v2.369h1.41c1.526 0 2.229.927 2.229 2.096 0 1.164-.703 2.083-2.233 2.083H.791Zm.835 3.103v2.711h1.362c1.046 0 1.446-.576 1.446-1.35 0-.777-.4-1.361-1.437-1.361Z"/></symbol><symbol id="aa" overflow="visible"><path d="M.694 0h.791v1.81l.519.488L3.8 0h1.015l-2.21 2.804 2.057 2.11h-.98L1.582 2.746h-.097v3.8h-.79Z"/></symbol><symbol id="ab" overflow="visible"><path d="M2.927-.088c1.463 0 2.522.782 2.522 1.846 0 .817-.633 1.494-1.41 1.626v.04a1.47 1.47 0 0 1 1.169 1.454c0 1.006-.972 1.758-2.281 1.758C1.613 6.636.65 5.889.65 4.878c0-.716.475-1.31 1.174-1.455v-.04c-.8-.131-1.41-.808-1.41-1.625C.413.694 1.458-.088 2.926-.088m0 .993c-.677 0-1.12.396-1.12.958 0 .58.47.993 1.12.993.646 0 1.12-.417 1.12-.993 0-.567-.448-.958-1.12-.958m0 2.936c-.563 0-.967.369-.967.892 0 .527.395.879.967.879.571 0 .967-.356.967-.88 0-.522-.41-.891-.967-.891"/></symbol><symbol id="ac" overflow="visible"><path d="M.791 0h.835v2.83h2.826v.738H1.626V5.81H4.75v.738H.791Z"/></symbol><symbol id="ad" overflow="visible"><path d="M.43 5.81h2.062V0h.835v5.81h2.052v.738H.43Z"/></symbol><symbol id="ae" overflow="visible"><path d="M.66 0h1.488v2.378h1.314c1.675 0 2.637 1 2.637 2.441 0 1.431-.948 2.456-2.603 2.456H.66Zm1.488 3.58v2.465h1.07c.913 0 1.343-.493 1.343-1.226 0-.732-.43-1.24-1.338-1.24Z"/></symbol><symbol id="af" overflow="visible"><path d="M2.09 7.275H.625V0H2.09Z"/></symbol><symbol id="ag" overflow="visible"><path d="M3.662 5.459H2.52v.371c0 .38.166.606.61.606.19 0 .366-.04.488-.074l.264 1.104c-.18.054-.591.151-1.05.151-1.01 0-1.772-.576-1.772-1.738v-.42H.098V4.341h.962V0h1.46v4.34h1.142Z"/></symbol><symbol id="ah" overflow="visible"><path d="M.625 0H2.09v3.3c0 .655.395 1.016.913 1.016.498 0 .85-.341.85-.874V0h1.416v3.36c0 .57.341.956.898.956.493 0 .87-.297.87-.913V0H8.5v3.682c0 1.186-.742 1.86-1.743 1.86-.752 0-1.445-.386-1.753-1.226-.254.83-.708 1.226-1.406 1.226-.655 0-1.265-.347-1.558-1.143l-.059 1.06H.625Z"/></symbol><symbol id="ai" overflow="visible"><path d="M.586-1.934c.21-.083.571-.146.957-.146 1.094 0 1.67.552 2.002 1.435l2.32 6.104H4.325L3.37 2.627a15 15 0 0 1-.395-1.426c-.103.484-.2.952-.347 1.426l-.918 2.832H.151L2.202-.015l-.039-.293c-.063-.546-.469-.727-1.06-.566l-.18.044Z"/></symbol><symbol id="aj" overflow="visible"><path d="M2.795-.097c1.608 0 2.641 1.323 2.641 3.53 0 2.394-1.266 3.203-2.584 3.212C1.397 6.653.413 5.687.413 4.364c0-1.23.857-2.118 2.022-2.118.716 0 1.344.351 1.643.918h.044c0-1.296-.466-2.105-1.327-2.105-.519 0-.883.299-.989.765H.48C.611.738 1.503-.096 2.795-.096m.048 3.327c-.65 0-1.125.505-1.125 1.169 0 .66.488 1.173 1.134 1.173.655 0 1.134-.531 1.134-1.164 0-.646-.497-1.178-1.143-1.178"/></symbol><symbol id="ak" overflow="visible"><path d="M3.44-.088c1.341 0 2.414.817 2.642 2.149h-.835C5.063 1.169 4.297.686 3.441.686c-1.173 0-2.092.91-2.092 2.584 0 1.678.914 2.592 2.092 2.592.852 0 1.622-.479 1.806-1.375h.835c-.233 1.349-1.314 2.149-2.641 2.149C1.762 6.636.536 5.348.536 3.27c0-2.075 1.226-3.358 2.905-3.358"/></symbol><symbol id="al" overflow="visible"><path d="M3.041 6.855h-.73L.203-.985h.73Z"/></symbol><symbol id="am" overflow="visible"><path d="M.791 0h.84v3.735c0 .317-.031.972-.067 1.81.51-.909.76-1.348 1.06-1.818L4.997 0h.993v6.548h-.835V2.53c0-.351.004-.91.057-1.542a17 17 0 0 1-.774 1.37L1.775 6.549H.791Z"/></symbol><symbol id="an" overflow="visible"><path d="M.286 0H1.2l.73 1.103c.219.334.368.633.518.91.162-.277.325-.576.54-.91L3.71 0h.918L2.905 2.479l1.643 2.434h-.905L3.02 3.96c-.228-.347-.378-.663-.536-.958-.171.295-.338.611-.563.958l-.61.954H.387l1.626-2.39Z"/></symbol><symbol id="ao" overflow="visible"><path d="M3.032-.088c1.661 0 2.624 1.235 2.624 3.358 0 2.118-.971 3.366-2.624 3.366C1.384 6.636.413 5.388.413 3.27c0-2.123.967-3.358 2.62-3.358m0 1.112c-.808 0-1.252.809-1.252 2.246s.448 2.258 1.252 2.258c.809 0 1.257-.817 1.257-2.258 0-1.437-.448-2.246-1.257-2.246"/></symbol><symbol id="ap" overflow="visible"><path d="M1.797 0h.787l.637 2.224c.158.549.312 1.164.462 1.788.149-.628.298-1.226.461-1.788L4.781 0h.787l1.49 4.913h-.84L5.621 2.77A33 33 0 0 1 5.146.86a30 30 0 0 1-.453 1.908l-.58 2.144H3.27L2.68 2.77a33 33 0 0 1-.465-1.92 30 30 0 0 1-.47 1.92l-.598 2.144h-.84Z"/></symbol><symbol id="aq" overflow="visible"><path d="M3.325-.107c1.768 0 2.808.854 2.808 2.177 0 1.221-.947 1.846-2.173 2.13l-.66.16c-.614.147-1.161.376-1.161.918 0 .489.43.84 1.191.84.747 0 1.211-.337 1.265-.918h1.44c-.024 1.28-1.079 2.173-2.69 2.173C1.763 7.373.61 6.494.61 5.181c0-1.06.738-1.68 1.968-1.978l.8-.2c.792-.195 1.256-.425 1.256-.923 0-.552-.528-.928-1.323-.928-.806 0-1.397.367-1.446 1.104H.415C.459.708 1.577-.107 3.325-.107"/></symbol><symbol id="ar" overflow="visible"><path d="M2.98 4.913H1.845v.48c0 .474.21.729.698.729.22 0 .343-.049.427-.075l.22.677a1.85 1.85 0 0 1-.739.131c-.716 0-1.397-.435-1.397-1.287v-.655H.088v-.677h.967V0h.79v4.236H2.98Z"/></symbol></defs></svg>